<?xml version="1.0" encoding="utf-8" standalone="no"?>
<!DOCTYPE svg PUBLIC "-//W3C//DTD SVG 1.1//EN"
  "http://www.w3.org/Graphics/SVG/1.1/DTD/svg11.dtd">
<!-- Created with matplotlib (https://matplotlib.org/) -->
<svg height="280.040843pt" version="1.1" viewBox="0 0 783.129064 280.040843" width="783.129064pt" xmlns="http://www.w3.org/2000/svg" xmlns:xlink="http://www.w3.org/1999/xlink">
 <defs>
  <style type="text/css">
*{stroke-linecap:butt;stroke-linejoin:round;}
  </style>
 </defs>
 <g id="figure_1">
  <g id="patch_1">
   <path d="M 0 280.040843 
L 783.129064 280.040843 
L 783.129064 0 
L 0 0 
z
" style="fill:#ffffff;"/>
  </g>
  <g id="axes_1">
   <g id="patch_2">
    <path d="M 42.331735 233.502714 
L 374.624543 233.502714 
L 374.624543 12.042938 
L 42.331735 12.042938 
z
" style="fill:#ffffff;"/>
   </g>
   <g id="PathCollection_1">
    <defs>
     <path d="M 0 3.535534 
C 0.937635 3.535534 1.836992 3.163008 2.5 2.5 
C 3.163008 1.836992 3.535534 0.937635 3.535534 0 
C 3.535534 -0.937635 3.163008 -1.836992 2.5 -2.5 
C 1.836992 -3.163008 0.937635 -3.535534 0 -3.535534 
C -0.937635 -3.535534 -1.836992 -3.163008 -2.5 -2.5 
C -3.163008 -1.836992 -3.535534 -0.937635 -3.535534 0 
C -3.535534 0.937635 -3.163008 1.836992 -2.5 2.5 
C -1.836992 3.163008 -0.937635 3.535534 0 3.535534 
z
" id="m568f57b5bf" style="stroke:#ff0000;"/>
    </defs>
    <g clip-path="url(#p402d7a55b8)">
     <use style="fill:#ff0000;stroke:#ff0000;" x="145.342506" xlink:href="#m568f57b5bf" y="122.772826"/>
    </g>
   </g>
   <g id="PathCollection_2">
    <g clip-path="url(#p402d7a55b8)">
     <use style="fill:#ff0000;stroke:#ff0000;" x="145.342506" xlink:href="#m568f57b5bf" y="181.828766"/>
    </g>
   </g>
   <g id="matplotlib.axis_1">
    <g id="xtick_1">
     <g id="line2d_1">
      <path clip-path="url(#p402d7a55b8)" d="M 42.331735 233.502714 
L 42.331735 12.042938 
" style="fill:none;stroke:#b0b0b0;stroke-dasharray:2.96,1.28;stroke-dashoffset:0;stroke-width:0.8;"/>
     </g>
     <g id="line2d_2">
      <defs>
       <path d="M 0 0 
L 0 3.5 
" id="md07939e142" style="stroke:#000000;stroke-width:0.8;"/>
      </defs>
      <g>
       <use style="stroke:#000000;stroke-width:0.8;" x="42.331735" xlink:href="#md07939e142" y="233.502714"/>
      </g>
     </g>
     <g id="text_1">
      <!-- $0$ -->
      <defs>
       <path d="M 42 31.84375 
C 42 37.96875 41.90625 48.421875 37.703125 56.453125 
C 34 63.484375 28.09375 66 22.90625 66 
C 18.09375 66 12 63.78125 8.203125 56.5625 
C 4.203125 49.015625 3.796875 39.671875 3.796875 31.84375 
C 3.796875 26.109375 3.90625 17.375 7 9.734375 
C 11.296875 -0.609375 19 -2 22.90625 -2 
C 27.5 -2 34.5 -0.109375 38.59375 9.4375 
C 41.59375 16.375 42 24.5 42 31.84375 
z
M 22.90625 -0.40625 
C 16.5 -0.40625 12.703125 5.125 11.296875 12.75 
C 10.203125 18.6875 10.203125 27.328125 10.203125 32.953125 
C 10.203125 40.6875 10.203125 47.109375 11.5 53.234375 
C 13.40625 61.78125 19 64.390625 22.90625 64.390625 
C 27 64.390625 32.296875 61.671875 34.203125 53.4375 
C 35.5 47.71875 35.59375 40.984375 35.59375 32.953125 
C 35.59375 26.421875 35.59375 18.375 34.40625 12.453125 
C 32.296875 1.5 26.40625 -0.40625 22.90625 -0.40625 
z
" id="CMR17-48"/>
      </defs>
      <g transform="translate(39.841067 247.421212)scale(0.1 -0.1)">
       <use transform="scale(0.996264)" xlink:href="#CMR17-48"/>
      </g>
     </g>
    </g>
    <g id="xtick_2">
     <g id="line2d_3">
      <path clip-path="url(#p402d7a55b8)" d="M 108.790297 233.502714 
L 108.790297 12.042938 
" style="fill:none;stroke:#b0b0b0;stroke-dasharray:2.96,1.28;stroke-dashoffset:0;stroke-width:0.8;"/>
     </g>
     <g id="line2d_4">
      <g>
       <use style="stroke:#000000;stroke-width:0.8;" x="108.790297" xlink:href="#md07939e142" y="233.502714"/>
      </g>
     </g>
     <g id="text_2">
      <!-- $20$ -->
      <defs>
       <path d="M 41.703125 15.46875 
L 39.90625 15.46875 
C 38.90625 8.390625 38.09375 7.1875 37.703125 6.59375 
C 37.203125 5.796875 30 5.796875 28.59375 5.796875 
L 9.40625 5.796875 
C 13 9.6875 20 16.765625 28.5 24.9375 
C 34.59375 30.71875 41.703125 37.5 41.703125 47.390625 
C 41.703125 59.1875 32.296875 66 21.796875 66 
C 10.796875 66 4.09375 56.296875 4.09375 47.296875 
C 4.09375 43.390625 7 42.890625 8.203125 42.890625 
C 9.203125 42.890625 12.203125 43.484375 12.203125 46.984375 
C 12.203125 50.09375 9.59375 51 8.203125 51 
C 7.59375 51 7 50.890625 6.59375 50.6875 
C 8.5 59.1875 14.296875 63.390625 20.40625 63.390625 
C 29.09375 63.390625 34.796875 56.5 34.796875 47.390625 
C 34.796875 38.703125 29.703125 31.21875 24 24.734375 
L 4.09375 2.296875 
L 4.09375 0 
L 39.296875 0 
z
" id="CMR17-50"/>
      </defs>
      <g transform="translate(103.808961 247.421212)scale(0.1 -0.1)">
       <use transform="scale(0.996264)" xlink:href="#CMR17-50"/>
       <use transform="translate(45.690477 0)scale(0.996264)" xlink:href="#CMR17-48"/>
      </g>
     </g>
    </g>
    <g id="xtick_3">
     <g id="line2d_5">
      <path clip-path="url(#p402d7a55b8)" d="M 175.248858 233.502714 
L 175.248858 12.042938 
" style="fill:none;stroke:#b0b0b0;stroke-dasharray:2.96,1.28;stroke-dashoffset:0;stroke-width:0.8;"/>
     </g>
     <g id="line2d_6">
      <g>
       <use style="stroke:#000000;stroke-width:0.8;" x="175.248858" xlink:href="#md07939e142" y="233.502714"/>
      </g>
     </g>
     <g id="text_3">
      <!-- $40$ -->
      <defs>
       <path d="M 33.59375 64.796875 
C 33.59375 66.890625 33.5 67 31.703125 67 
L 2 19.59375 
L 2 17 
L 27.796875 17 
L 27.796875 7.1875 
C 27.796875 3.59375 27.59375 2.59375 20.59375 2.59375 
L 18.703125 2.59375 
L 18.703125 0 
C 21.90625 0.1875 27.296875 0.1875 30.703125 0.1875 
C 34.09375 0.1875 39.5 0.1875 42.703125 0 
L 42.703125 2.59375 
L 40.796875 2.59375 
C 33.796875 2.59375 33.59375 3.59375 33.59375 7.1875 
L 33.59375 17 
L 43.796875 17 
L 43.796875 19.59375 
L 33.59375 19.59375 
z
M 28.09375 58.171875 
L 28.09375 19.59375 
L 4 19.59375 
z
" id="CMR17-52"/>
      </defs>
      <g transform="translate(170.267523 247.421212)scale(0.1 -0.1)">
       <use transform="scale(0.996264)" xlink:href="#CMR17-52"/>
       <use transform="translate(45.690477 0)scale(0.996264)" xlink:href="#CMR17-48"/>
      </g>
     </g>
    </g>
    <g id="xtick_4">
     <g id="line2d_7">
      <path clip-path="url(#p402d7a55b8)" d="M 241.70742 233.502714 
L 241.70742 12.042938 
" style="fill:none;stroke:#b0b0b0;stroke-dasharray:2.96,1.28;stroke-dashoffset:0;stroke-width:0.8;"/>
     </g>
     <g id="line2d_8">
      <g>
       <use style="stroke:#000000;stroke-width:0.8;" x="241.70742" xlink:href="#md07939e142" y="233.502714"/>
      </g>
     </g>
     <g id="text_4">
      <!-- $60$ -->
      <defs>
       <path d="M 10.59375 34.34375 
C 10.59375 58 21.796875 63.6875 28.296875 63.6875 
C 30.40625 63.6875 35.5 63.265625 37.5 59.09375 
C 35.90625 59.09375 32.90625 59.09375 32.90625 55.59375 
C 32.90625 52.890625 35.09375 52 36.5 52 
C 37.40625 52 40.09375 52.390625 40.09375 55.796875 
C 40.09375 62.296875 35.09375 66 28.203125 66 
C 16.296875 66 3.796875 53.296875 3.796875 31.421875 
C 3.796875 4.015625 15.09375 -2 23.09375 -2 
C 32.796875 -2 42 6.734375 42 20.234375 
C 42 32.828125 33.90625 42 23.703125 42 
C 17.59375 42 13.09375 37.96875 10.59375 30.921875 
z
M 23.09375 0.390625 
C 10.796875 0.390625 10.796875 18.9375 10.796875 22.65625 
C 10.796875 29.90625 14.203125 40.390625 23.5 40.390625 
C 25.203125 40.390625 30.09375 40.390625 33.40625 33.4375 
C 35.203125 29.515625 35.203125 25.375 35.203125 20.34375 
C 35.203125 14.90625 35.203125 10.875 33.09375 6.84375 
C 30.90625 2.703125 27.703125 0.390625 23.09375 0.390625 
z
" id="CMR17-54"/>
      </defs>
      <g transform="translate(236.726085 247.421212)scale(0.1 -0.1)">
       <use transform="scale(0.996264)" xlink:href="#CMR17-54"/>
       <use transform="translate(45.690477 0)scale(0.996264)" xlink:href="#CMR17-48"/>
      </g>
     </g>
    </g>
    <g id="xtick_5">
     <g id="line2d_9">
      <path clip-path="url(#p402d7a55b8)" d="M 308.165982 233.502714 
L 308.165982 12.042938 
" style="fill:none;stroke:#b0b0b0;stroke-dasharray:2.96,1.28;stroke-dashoffset:0;stroke-width:0.8;"/>
     </g>
     <g id="line2d_10">
      <g>
       <use style="stroke:#000000;stroke-width:0.8;" x="308.165982" xlink:href="#md07939e142" y="233.502714"/>
      </g>
     </g>
     <g id="text_5">
      <!-- $80$ -->
      <defs>
       <path d="M 27.203125 35.765625 
C 33.5 38.96875 39.90625 43.796875 39.90625 51.53125 
C 39.90625 60.6875 31.09375 66 23 66 
C 13.90625 66 5.90625 59.375 5.90625 50.234375 
C 5.90625 47.71875 6.5 43.390625 10.40625 39.578125 
C 11.40625 38.578125 15.59375 35.5625 18.296875 33.65625 
C 13.796875 31.34375 3.296875 25.8125 3.296875 14.765625 
C 3.296875 4.40625 13.09375 -2 22.796875 -2 
C 33.5 -2 42.5 5.71875 42.5 15.96875 
C 42.5 25.109375 36.40625 29.328125 32.40625 32.046875 
z
M 14.09375 44.609375 
C 13.296875 45.109375 9.296875 48.21875 9.296875 52.9375 
C 9.296875 59.078125 15.59375 63.6875 22.796875 63.6875 
C 30.703125 63.6875 36.5 58.0625 36.5 51.53125 
C 36.5 42.1875 26.09375 36.859375 25.59375 36.859375 
C 25.5 36.859375 25.40625 36.859375 24.59375 37.46875 
z
M 32.5 24 
C 34 22.90625 38.796875 19.578125 38.796875 13.453125 
C 38.796875 6.015625 31.40625 0.390625 23 0.390625 
C 13.90625 0.390625 7 6.921875 7 14.859375 
C 7 22.796875 13.09375 29.4375 20 32.546875 
z
" id="CMR17-56"/>
      </defs>
      <g transform="translate(303.184646 247.421212)scale(0.1 -0.1)">
       <use transform="scale(0.996264)" xlink:href="#CMR17-56"/>
       <use transform="translate(45.690477 0)scale(0.996264)" xlink:href="#CMR17-48"/>
      </g>
     </g>
    </g>
    <g id="xtick_6">
     <g id="line2d_11">
      <path clip-path="url(#p402d7a55b8)" d="M 374.624543 233.502714 
L 374.624543 12.042938 
" style="fill:none;stroke:#b0b0b0;stroke-dasharray:2.96,1.28;stroke-dashoffset:0;stroke-width:0.8;"/>
     </g>
     <g id="line2d_12">
      <g>
       <use style="stroke:#000000;stroke-width:0.8;" x="374.624543" xlink:href="#md07939e142" y="233.502714"/>
      </g>
     </g>
     <g id="text_6">
      <!-- $100$ -->
      <defs>
       <path d="M 26.59375 63.796875 
C 26.59375 65.890625 26.5 66 25.09375 66 
C 21.203125 61.359375 15.296875 59.890625 9.703125 59.6875 
C 9.40625 59.6875 8.90625 59.6875 8.796875 59.5 
C 8.703125 59.296875 8.703125 59.09375 8.703125 57 
C 11.796875 57 17 57.59375 21 59.984375 
L 21 7.296875 
C 21 3.796875 20.796875 2.59375 12.203125 2.59375 
L 9.203125 2.59375 
L 9.203125 0 
C 14 0.09375 19 0.1875 23.796875 0.1875 
C 28.59375 0.1875 33.59375 0.09375 38.40625 0 
L 38.40625 2.59375 
L 35.40625 2.59375 
C 26.796875 2.59375 26.59375 3.6875 26.59375 7.296875 
z
" id="CMR17-49"/>
      </defs>
      <g transform="translate(367.15254 247.421212)scale(0.1 -0.1)">
       <use transform="scale(0.996264)" xlink:href="#CMR17-49"/>
       <use transform="translate(45.690477 0)scale(0.996264)" xlink:href="#CMR17-48"/>
       <use transform="translate(91.380954 0)scale(0.996264)" xlink:href="#CMR17-48"/>
      </g>
     </g>
    </g>
    <g id="text_7">
     <!-- Training Step (x 100) -->
     <defs>
      <path d="M 62.203125 67.6875 
L 4.5 67.6875 
L 2.796875 45.6875 
L 4.59375 45.6875 
C 5.90625 62.203125 7.296875 65.09375 22.703125 65.09375 
C 24.5 65.09375 27.40625 65.09375 28.203125 64.984375 
C 30.09375 64.6875 30.09375 63.5 30.09375 61.203125 
L 30.09375 7.265625 
C 30.09375 3.6875 29.796875 2.59375 21.5 2.59375 
L 18.703125 2.59375 
L 18.703125 0 
C 23.5 0.09375 28.5 0.1875 33.40625 0.1875 
C 38.296875 0.1875 43.296875 0.09375 48.09375 0 
L 48.09375 2.59375 
L 45.296875 2.59375 
C 37 2.59375 36.703125 3.6875 36.703125 7.265625 
L 36.703125 61.203125 
C 36.703125 63.390625 36.703125 64.59375 38.5 64.984375 
C 39.296875 65.09375 42.203125 65.09375 44 65.09375 
C 59.296875 65.09375 60.796875 62.203125 62.09375 45.6875 
L 63.90625 45.6875 
z
" id="CMR17-84"/>
      <path d="M 15 23.703125 
C 15 33.34375 19.09375 42.390625 26.59375 42.390625 
C 27.296875 42.390625 28 42.296875 28.703125 41.984375 
C 28.703125 41.984375 26.5 41.28125 26.5 38.671875 
C 26.5 36.265625 28.40625 35.265625 29.90625 35.265625 
C 31.09375 35.265625 33.296875 35.96875 33.296875 38.78125 
C 33.296875 41.984375 30.09375 44 26.703125 44 
C 19.09375 44 15.796875 36.5625 14.796875 33.046875 
L 14.703125 33.046875 
L 14.703125 44 
L 3.09375 42.890625 
L 3.09375 40.28125 
C 9 40.28125 9.90625 39.6875 9.90625 34.859375 
L 9.90625 6.921875 
C 9.90625 3.09375 9.5 2.59375 3.09375 2.59375 
L 3.09375 0 
C 5.5 0.1875 10.09375 0.1875 12.703125 0.1875 
C 15.59375 0.1875 20.703125 0.1875 23.40625 0 
L 23.40625 2.59375 
C 16.203125 2.59375 15 2.59375 15 7.109375 
z
" id="CMR17-114"/>
      <path d="M 36 25.875 
C 36 32 36 35.546875 31.796875 39.59375 
C 28.09375 42.984375 23.796875 44 20.40625 44 
C 12.5 44 6.796875 37.625 6.796875 30.890625 
C 6.796875 27.1875 9.796875 27 10.40625 27 
C 11.703125 27 14 27.796875 14 30.59375 
C 14 33.09375 12.09375 34.1875 10.40625 34.1875 
C 10 34.1875 9.5 34.09375 9.203125 34 
C 11.296875 40.53125 16.703125 42.390625 20.203125 42.390625 
C 25.203125 42.390625 30.703125 37.828125 30.703125 29.296875 
L 30.703125 25.5 
C 24.796875 25.296875 17.703125 24.5 12.09375 21.453125 
C 5.796875 17.921875 4 12.84375 4 9 
C 4 1.203125 13 -1 18.296875 -1 
C 23.796875 -1 28.90625 2.109375 31.09375 7.890625 
C 31.296875 3.421875 34.09375 -0.609375 38.5 -0.609375 
C 40.59375 -0.609375 45.90625 0.796875 45.90625 8.796875 
L 45.90625 14.46875 
L 44.09375 14.46875 
L 44.09375 8.703125 
C 44.09375 2.515625 41.40625 1.703125 40.09375 1.703125 
C 36 1.703125 36 6.96875 36 11.4375 
z
M 30.703125 13.859375 
C 30.703125 5.046875 24.5 0.59375 19 0.59375 
C 14 0.59375 10.09375 4.34375 10.09375 9 
C 10.09375 12.046875 11.40625 17.40625 17.203125 20.65625 
C 22 23.390625 27.5 23.796875 30.703125 24 
z
" id="CMR17-97"/>
      <path d="M 15.5 61.890625 
C 15.5 64.09375 13.703125 66 11.40625 66 
C 9.203125 66 7.296875 64.1875 7.296875 61.890625 
C 7.296875 59.6875 9.09375 57.796875 11.40625 57.796875 
C 13.59375 57.796875 15.5 59.59375 15.5 61.890625 
z
M 3.796875 42.890625 
L 3.796875 40.296875 
C 9.40625 40.296875 10.203125 39.6875 10.203125 34.859375 
L 10.203125 6.921875 
C 10.203125 3.09375 9.796875 2.59375 3.40625 2.59375 
L 3.40625 0 
C 5.796875 0.1875 10.09375 0.1875 12.59375 0.1875 
C 15 0.1875 19.09375 0.1875 21.40625 0 
L 21.40625 2.59375 
C 15.5 2.59375 15.296875 3.203125 15.296875 6.8125 
L 15.296875 44 
z
" id="CMR17-105"/>
      <path d="M 41.5 30.53125 
C 41.5 35.65625 40.5 44 28.703125 44 
C 20.796875 44 16.703125 37.875 15.203125 33.84375 
L 15.09375 33.84375 
L 15.09375 44 
L 3.296875 42.890625 
L 3.296875 40.28125 
C 9.203125 40.28125 10.09375 39.6875 10.09375 34.859375 
L 10.09375 6.921875 
C 10.09375 3.09375 9.703125 2.59375 3.296875 2.59375 
L 3.296875 0 
C 5.703125 0.1875 10.09375 0.1875 12.703125 0.1875 
C 15.296875 0.1875 19.796875 0.1875 22.203125 0 
L 22.203125 2.59375 
C 15.796875 2.59375 15.40625 3 15.40625 6.921875 
L 15.40625 26.21875 
C 15.40625 35.453125 21 42.390625 28 42.390625 
C 35.40625 42.390625 36.203125 35.765625 36.203125 30.9375 
L 36.203125 6.921875 
C 36.203125 3.09375 35.796875 2.59375 29.40625 2.59375 
L 29.40625 0 
C 31.796875 0.1875 36.203125 0.1875 38.796875 0.1875 
C 41.40625 0.1875 45.90625 0.1875 48.296875 0 
L 48.296875 2.59375 
C 41.90625 2.59375 41.5 3 41.5 6.921875 
z
" id="CMR17-110"/>
      <path d="M 11.09375 18.203125 
C 13 16.6875 16.296875 15 20.296875 15 
C 28.203125 15 35 21.234375 35 29.609375 
C 35 32.234375 34.203125 36.265625 31.203125 39.390625 
C 34 42.390625 38.09375 43.390625 40.40625 43.390625 
C 40.796875 43.390625 41.40625 43.390625 41.90625 43.09375 
C 41.5 42.984375 40.59375 42.59375 40.59375 40.984375 
C 40.59375 39.6875 41.5 38.796875 42.796875 38.796875 
C 44.296875 38.796875 45.09375 39.796875 45.09375 41.09375 
C 45.09375 42.984375 43.59375 45 40.40625 45 
C 36.40625 45 32.90625 43.09375 30.09375 40.484375 
C 27.09375 43.1875 23.5 44.1875 20.296875 44.1875 
C 12.40625 44.1875 5.59375 37.984375 5.59375 29.609375 
C 5.59375 23.859375 8.90625 20.21875 9.90625 19.21875 
C 6.90625 15.6875 6.90625 11.59375 6.90625 11.09375 
C 6.90625 8.5 7.90625 4.6875 11.296875 2.59375 
C 6.09375 1.28125 2 -2.875 2 -8.078125 
C 2 -15.5625 11.5 -21 22.90625 -21 
C 33.90625 -21 43.796875 -15.765625 43.796875 -7.96875 
C 43.796875 6 29 6 21.296875 6 
C 19 6 14.90625 6 14.40625 6.09375 
C 11.296875 6.59375 9.203125 9.390625 9.203125 12.890625 
C 9.203125 13.796875 9.203125 16 11.09375 18.203125 
z
M 20.296875 16.6875 
C 11.5 16.6875 11.5 27.59375 11.5 29.609375 
C 11.5 31.625 11.5 42.484375 20.296875 42.484375 
C 29.09375 42.484375 29.09375 31.625 29.09375 29.609375 
C 29.09375 27.59375 29.09375 16.6875 20.296875 16.6875 
z
M 22.90625 -19.3125 
C 12.90625 -19.3125 6 -13.796875 6 -8.078125 
C 6 -4.859375 7.703125 -1.84375 9.90625 -0.171875 
C 12.40625 1.59375 13.40625 1.59375 20.203125 1.59375 
C 28.40625 1.59375 39.796875 1.59375 39.796875 -8.078125 
C 39.796875 -13.796875 32.90625 -19.3125 22.90625 -19.3125 
z
" id="CMR17-103"/>
      <path d="M 43.796875 67.984375 
C 43.796875 69.796875 43.703125 69.890625 43.09375 69.890625 
C 42.5 69.890625 42.296875 69.484375 41.90625 68.59375 
L 38.90625 61.953125 
C 35.09375 67.5 29.296875 70 23 70 
C 12.796875 70 4.59375 61.84375 4.59375 51.578125 
C 4.59375 48.453125 5.296875 44.015625 8.703125 39.78125 
C 12.40625 35.15625 15.90625 34.34375 23.90625 32.234375 
C 26.90625 31.421875 31.90625 30.109375 32.90625 29.703125 
C 38.59375 27.296875 41.59375 21.25 41.59375 15.609375 
C 41.59375 8.34375 36.5 0.59375 27.796875 0.59375 
C 17.09375 0.59375 7.09375 6.640625 6.40625 20.75 
C 6.296875 22.359375 6.203125 22.453125 5.5 22.453125 
C 4.703125 22.453125 4.59375 22.359375 4.59375 20.34375 
L 4.59375 0 
C 4.59375 -1.8125 4.703125 -1.90625 5.296875 -1.90625 
C 6 -1.90625 6.203125 -1.40625 7.59375 1.703125 
C 7.703125 2 7.703125 2.203125 9.59375 6.03125 
C 14.59375 -0.609375 23 -2 27.796875 -2 
C 38.703125 -2 46.40625 7.140625 46.40625 17.828125 
C 46.40625 23.0625 44.5 27.09375 43.40625 28.90625 
C 39.203125 35.359375 34.703125 36.5625 29.90625 37.765625 
C 29.203125 38.078125 29 38.078125 23.40625 39.484375 
C 18 40.890625 15.703125 41.59375 13.203125 44.3125 
C 10.40625 47.4375 9.40625 50.671875 9.40625 53.890625 
C 9.40625 60.4375 14.59375 67.59375 23.09375 67.59375 
C 33.703125 67.59375 40.296875 60.03125 41.796875 47.4375 
C 42.09375 45.625 42.203125 45.53125 42.90625 45.53125 
C 43.796875 45.53125 43.796875 45.828125 43.796875 47.546875 
z
" id="CMR17-83"/>
      <path d="M 15.09375 40.390625 
L 29.09375 40.390625 
L 29.09375 43 
L 15.09375 43 
L 15.09375 62 
L 13.296875 62 
C 13.09375 51.4375 9.59375 42.1875 1.09375 41.984375 
L 1.09375 40.390625 
L 9.796875 40.390625 
L 9.796875 12.15625 
C 9.796875 10.234375 9.796875 -1 21.40625 -1 
C 27.296875 -1 30.703125 4.8125 30.703125 12.25 
L 30.703125 17.984375 
L 28.90625 17.984375 
L 28.90625 12.34375 
C 28.90625 5.421875 26.203125 0.796875 22 0.796875 
C 19.09375 0.796875 15.09375 2.796875 15.09375 11.953125 
z
" id="CMR17-116"/>
      <path d="M 38.09375 23.484375 
C 38.5 23.890625 38.5 24.09375 38.5 25.09375 
C 38.5 35.171875 33.09375 44 21.703125 44 
C 11.09375 44 2.703125 33.984375 2.703125 21.78125 
C 2.703125 8.65625 12.203125 -1 22.796875 -1 
C 34 -1 38.40625 9.671875 38.40625 11.796875 
C 38.40625 12.5 37.796875 12.5 37.59375 12.5 
C 36.90625 12.5 36.796875 12.296875 36.40625 11.078125 
C 34.203125 4.21875 28.703125 0.796875 23.5 0.796875 
C 19.203125 0.796875 14.90625 3.21875 12.203125 7.65625 
C 9.09375 12.796875 9.09375 18.75 9.09375 23.484375 
z
M 9.203125 25 
C 9.90625 39.234375 17.59375 42.390625 21.59375 42.390625 
C 28.40625 42.390625 33 36.0625 33.09375 25 
z
" id="CMR17-101"/>
      <path d="M 22 -17.40625 
C 15.59375 -17.40625 15.203125 -17 15.203125 -13.03125 
L 15.203125 5.9375 
C 18.09375 1.703125 22.296875 -1 27.59375 -1 
C 37.59375 -1 47.703125 7.859375 47.703125 21.59375 
C 47.703125 34.3125 39 44 28.703125 44 
C 22.703125 44 17.796875 40.671875 15 36.640625 
L 15 44 
L 3.09375 42.890625 
L 3.09375 40.265625 
C 9 40.265625 9.90625 39.671875 9.90625 34.8125 
L 9.90625 -13.03125 
C 9.90625 -16.890625 9.5 -17.40625 3.09375 -17.40625 
L 3.09375 -20 
C 5.5 -19.8125 9.90625 -19.8125 12.5 -19.8125 
C 15.09375 -19.8125 19.59375 -19.8125 22 -20 
z
M 15.203125 31.484375 
C 15.203125 32.90625 15.203125 35.015625 19.09375 38.765625 
C 19.59375 39.15625 23 42.1875 28 42.1875 
C 35.296875 42.1875 41.296875 33 41.296875 21.5 
C 41.296875 9.984375 34.90625 0.59375 27 0.59375 
C 23.40625 0.59375 19.5 2.3125 16.5 7.046875 
C 15.203125 9.28125 15.203125 9.875 15.203125 11.5 
z
" id="CMR17-112"/>
      <path d="M 30.59375 -24.40625 
C 30.59375 -24.3125 30.59375 -24.109375 30.296875 -23.8125 
C 25.703125 -19.109375 13.40625 -6.296875 13.40625 24.9375 
C 13.40625 56.171875 25.5 68.875 30.40625 73.890625 
C 30.40625 73.984375 30.59375 74.1875 30.59375 74.484375 
C 30.59375 74.796875 30.296875 75 29.90625 75 
C 28.796875 75 20.296875 67.578125 15.40625 56.5625 
C 10.40625 45.453125 9 34.65625 9 25.046875 
C 9 17.828125 9.703125 5.625 15.703125 -7.296875 
C 20.5 -17.703125 28.703125 -25 29.90625 -25 
C 30.40625 -25 30.59375 -24.8125 30.59375 -24.40625 
z
" id="CMR17-40"/>
      <path d="M 26 23.296875 
C 29 27.1875 32.40625 31.59375 35.203125 34.890625 
C 38.5 38.6875 42.296875 40.296875 46.703125 40.390625 
L 46.703125 43 
C 45 42.890625 41.5 42.796875 39.703125 42.796875 
C 37 42.796875 33.90625 42.796875 31.59375 43 
L 31.59375 40.390625 
C 33 40.1875 33.796875 39.1875 33.796875 37.796875 
C 33.796875 36 32.796875 34.890625 32.296875 34.1875 
L 24.90625 24.796875 
L 16.09375 36.296875 
C 15.203125 37.390625 15.203125 37.59375 15.203125 38.09375 
C 15.203125 39.296875 16.203125 40.296875 17.90625 40.390625 
L 17.90625 43 
C 15.5 42.796875 11.203125 42.796875 8.703125 42.796875 
C 6 42.796875 2.796875 42.796875 0.59375 43 
L 0.59375 40.390625 
C 6 40.390625 7.203125 40 9.59375 37 
L 21.09375 22.09375 
C 21.296875 21.890625 21.796875 21.296875 21.796875 21 
C 21.796875 20.59375 13.09375 9.890625 12 8.5 
C 7.5 3.09375 2.796875 2.6875 0.09375 2.59375 
L 0.09375 0 
C 1.796875 0.09375 5.296875 0.1875 7.09375 0.1875 
C 9.09375 0.1875 13.5 0.1875 15.296875 0 
L 15.296875 2.59375 
C 14.703125 2.6875 13.09375 2.890625 13.09375 5.1875 
C 13.09375 7 13.90625 8.09375 14.796875 9.296875 
L 23.09375 19.5 
L 31.796875 8.1875 
C 32.59375 7.09375 33.796875 5.59375 33.796875 4.890625 
C 33.796875 3.5 32.59375 2.6875 31 2.59375 
L 31 0 
C 33.40625 0.1875 37.703125 0.1875 40.203125 0.1875 
C 42.90625 0.1875 46.09375 0.1875 48.296875 0 
L 48.296875 2.59375 
C 43.296875 2.59375 41.796875 2.796875 39.40625 5.890625 
z
" id="CMR17-120"/>
      <path d="M 26.296875 24.9375 
C 26.296875 32.140625 25.59375 44.359375 19.59375 57.265625 
C 14.796875 67.6875 6.59375 75 5.40625 75 
C 5.09375 75 4.703125 74.890625 4.703125 74.390625 
C 4.703125 74.1875 4.796875 74.09375 4.90625 73.890625 
C 9.703125 68.875 21.90625 56.171875 21.90625 25.046875 
C 21.90625 -6.1875 9.796875 -18.90625 4.90625 -23.90625 
C 4.796875 -24.109375 4.703125 -24.203125 4.703125 -24.40625 
C 4.703125 -24.90625 5.09375 -25 5.40625 -25 
C 6.5 -25 15 -17.609375 19.90625 -6.59375 
C 24.90625 4.515625 26.296875 15.328125 26.296875 24.9375 
z
" id="CMR17-41"/>
     </defs>
     <g transform="translate(134.773817 265.313559)scale(0.16 -0.16)">
      <use transform="scale(0.996264)" xlink:href="#CMR17-84"/>
      <use transform="translate(58.702625 0)scale(0.996264)" xlink:href="#CMR17-114"/>
      <use transform="translate(93.983393 0)scale(0.996264)" xlink:href="#CMR17-97"/>
      <use transform="translate(139.67387 0)scale(0.996264)" xlink:href="#CMR17-105"/>
      <use transform="translate(164.544929 0)scale(0.996264)" xlink:href="#CMR17-110"/>
      <use transform="translate(215.440298 0)scale(0.996264)" xlink:href="#CMR17-105"/>
      <use transform="translate(240.311357 0)scale(0.996264)" xlink:href="#CMR17-110"/>
      <use transform="translate(291.206727 0)scale(0.996264)" xlink:href="#CMR17-103"/>
      <use transform="translate(366.97317 0)scale(0.996264)" xlink:href="#CMR17-83"/>
      <use transform="translate(417.86854 0)scale(0.996264)" xlink:href="#CMR17-116"/>
      <use transform="translate(453.149308 0)scale(0.996264)" xlink:href="#CMR17-101"/>
      <use transform="translate(493.634968 0)scale(0.996264)" xlink:href="#CMR17-112"/>
      <use transform="translate(574.606304 0)scale(0.996264)" xlink:href="#CMR17-40"/>
      <use transform="translate(609.887072 0)scale(0.996264)" xlink:href="#CMR17-120"/>
      <use transform="translate(688.255954 0)scale(0.996264)" xlink:href="#CMR17-49"/>
      <use transform="translate(733.946431 0)scale(0.996264)" xlink:href="#CMR17-48"/>
      <use transform="translate(779.636908 0)scale(0.996264)" xlink:href="#CMR17-48"/>
      <use transform="translate(825.327386 0)scale(0.996264)" xlink:href="#CMR17-41"/>
     </g>
    </g>
   </g>
   <g id="matplotlib.axis_2">
    <g id="ytick_1">
     <g id="line2d_13">
      <path clip-path="url(#p402d7a55b8)" d="M 42.331735 233.502714 
L 374.624543 233.502714 
" style="fill:none;stroke:#b0b0b0;stroke-dasharray:2.96,1.28;stroke-dashoffset:0;stroke-width:0.8;"/>
     </g>
     <g id="line2d_14">
      <defs>
       <path d="M 0 0 
L -3.5 0 
" id="mcc487c7aac" style="stroke:#000000;stroke-width:0.8;"/>
      </defs>
      <g>
       <use style="stroke:#000000;stroke-width:0.8;" x="42.331735" xlink:href="#mcc487c7aac" y="233.502714"/>
      </g>
     </g>
     <g id="text_8">
      <!-- $4$ -->
      <g transform="translate(30.3504 236.961963)scale(0.1 -0.1)">
       <use transform="scale(0.996264)" xlink:href="#CMR17-52"/>
      </g>
     </g>
    </g>
    <g id="ytick_2">
     <g id="line2d_15">
      <path clip-path="url(#p402d7a55b8)" d="M 42.331735 196.592751 
L 374.624543 196.592751 
" style="fill:none;stroke:#b0b0b0;stroke-dasharray:2.96,1.28;stroke-dashoffset:0;stroke-width:0.8;"/>
     </g>
     <g id="line2d_16">
      <g>
       <use style="stroke:#000000;stroke-width:0.8;" x="42.331735" xlink:href="#mcc487c7aac" y="196.592751"/>
      </g>
     </g>
     <g id="text_9">
      <!-- $5$ -->
      <defs>
       <path d="M 11.40625 58.59375 
C 12.40625 58.1875 16.5 56.890625 20.703125 56.890625 
C 30 56.890625 35.09375 61.890625 38 64.6875 
C 38 65.484375 38 66 37.40625 66 
C 37.296875 66 37.09375 66 36.296875 65.59375 
C 32.796875 64.09375 28.703125 63 23.703125 63 
C 20.703125 63 16.203125 63.359375 11.296875 65.484375 
C 10.203125 66 10 66 9.90625 66 
C 9.40625 66 9.296875 65.890625 9.296875 63.90625 
L 9.296875 34.859375 
C 9.296875 33.015625 9.296875 32.5 10.296875 32.5 
C 10.796875 32.5 11 32.703125 11.5 33.421875 
C 14.703125 38.046875 19.09375 40 24.09375 40 
C 27.59375 40 35.09375 37.734375 35.09375 20.203125 
C 35.09375 16.984375 35.09375 11.1875 32.09375 6.59375 
C 29.59375 2.484375 25.703125 0.390625 21.40625 0.390625 
C 14.796875 0.390625 8.09375 4.984375 6.296875 12.6875 
C 6.703125 12.59375 7.5 12.390625 7.90625 12.390625 
C 9.203125 12.390625 11.703125 13.09375 11.703125 16.1875 
C 11.703125 18.890625 9.796875 20 7.90625 20 
C 5.59375 20 4.09375 18.59375 4.09375 15.796875 
C 4.09375 7.09375 11 -2 21.59375 -2 
C 31.90625 -2 41.703125 6.890625 41.703125 19.796875 
C 41.703125 32.09375 33.90625 41.59375 24.203125 41.59375 
C 19.09375 41.59375 14.796875 39.6875 11.40625 36 
z
" id="CMR17-53"/>
      </defs>
      <g transform="translate(30.3504 200.052001)scale(0.1 -0.1)">
       <use transform="scale(0.996264)" xlink:href="#CMR17-53"/>
      </g>
     </g>
    </g>
    <g id="ytick_3">
     <g id="line2d_17">
      <path clip-path="url(#p402d7a55b8)" d="M 42.331735 159.682789 
L 374.624543 159.682789 
" style="fill:none;stroke:#b0b0b0;stroke-dasharray:2.96,1.28;stroke-dashoffset:0;stroke-width:0.8;"/>
     </g>
     <g id="line2d_18">
      <g>
       <use style="stroke:#000000;stroke-width:0.8;" x="42.331735" xlink:href="#mcc487c7aac" y="159.682789"/>
      </g>
     </g>
     <g id="text_10">
      <!-- $6$ -->
      <g transform="translate(30.3504 163.142038)scale(0.1 -0.1)">
       <use transform="scale(0.996264)" xlink:href="#CMR17-54"/>
      </g>
     </g>
    </g>
    <g id="ytick_4">
     <g id="line2d_19">
      <path clip-path="url(#p402d7a55b8)" d="M 42.331735 122.772826 
L 374.624543 122.772826 
" style="fill:none;stroke:#b0b0b0;stroke-dasharray:2.96,1.28;stroke-dashoffset:0;stroke-width:0.8;"/>
     </g>
     <g id="line2d_20">
      <g>
       <use style="stroke:#000000;stroke-width:0.8;" x="42.331735" xlink:href="#mcc487c7aac" y="122.772826"/>
      </g>
     </g>
     <g id="text_11">
      <!-- $7$ -->
      <defs>
       <path d="M 45.09375 61.796875 
L 45.09375 64 
L 21.59375 64 
C 9.90625 64 9.703125 65.09375 9.296875 67 
L 7.5 67 
L 4.59375 48.5 
L 6.40625 48.5 
C 6.703125 50.40625 7.40625 55.5 8.59375 57.390625 
C 9.203125 58.1875 16.59375 58.1875 18.296875 58.1875 
L 40.296875 58.1875 
L 29.203125 41.71875 
C 21.796875 30.640625 16.703125 15.671875 16.703125 2.59375 
C 16.703125 1.390625 16.703125 -2 20.296875 -2 
C 23.90625 -2 23.90625 1.390625 23.90625 2.6875 
L 23.90625 7.28125 
C 23.90625 23.65625 26.703125 34.4375 31.296875 41.3125 
z
" id="CMR17-55"/>
      </defs>
      <g transform="translate(30.3504 126.232075)scale(0.1 -0.1)">
       <use transform="scale(0.996264)" xlink:href="#CMR17-55"/>
      </g>
     </g>
    </g>
    <g id="ytick_5">
     <g id="line2d_21">
      <path clip-path="url(#p402d7a55b8)" d="M 42.331735 85.862864 
L 374.624543 85.862864 
" style="fill:none;stroke:#b0b0b0;stroke-dasharray:2.96,1.28;stroke-dashoffset:0;stroke-width:0.8;"/>
     </g>
     <g id="line2d_22">
      <g>
       <use style="stroke:#000000;stroke-width:0.8;" x="42.331735" xlink:href="#mcc487c7aac" y="85.862864"/>
      </g>
     </g>
     <g id="text_12">
      <!-- $8$ -->
      <g transform="translate(30.3504 89.322113)scale(0.1 -0.1)">
       <use transform="scale(0.996264)" xlink:href="#CMR17-56"/>
      </g>
     </g>
    </g>
    <g id="ytick_6">
     <g id="line2d_23">
      <path clip-path="url(#p402d7a55b8)" d="M 42.331735 48.952901 
L 374.624543 48.952901 
" style="fill:none;stroke:#b0b0b0;stroke-dasharray:2.96,1.28;stroke-dashoffset:0;stroke-width:0.8;"/>
     </g>
     <g id="line2d_24">
      <g>
       <use style="stroke:#000000;stroke-width:0.8;" x="42.331735" xlink:href="#mcc487c7aac" y="48.952901"/>
      </g>
     </g>
     <g id="text_13">
      <!-- $9$ -->
      <defs>
       <path d="M 35.203125 29.234375 
C 35.203125 7 26.09375 0.390625 18.59375 0.390625 
C 16.296875 0.390625 10.703125 0.671875 8.40625 4.390625 
C 11 4 12.90625 5.390625 12.90625 7.890625 
C 12.90625 10.59375 10.703125 11.5 9.296875 11.5 
C 8.40625 11.5 5.703125 11.09375 5.703125 7.6875 
C 5.703125 1.0625 11.59375 -2 18.796875 -2 
C 30.296875 -2 42 10.390625 42 32.65625 
C 42 60.265625 30.796875 66 23.203125 66 
C 13.296875 66 3.796875 57.25 3.796875 43.75 
C 3.796875 31.25 11.90625 22 22.09375 22 
C 30.5 22 34.203125 29.84375 35.203125 33.15625 
z
M 22.296875 23.59375 
C 19.59375 23.59375 15.796875 24.09375 12.703125 30.140625 
C 10.59375 34.078125 10.59375 38.703125 10.59375 43.640625 
C 10.59375 49.59375 10.59375 53.71875 13.40625 58.15625 
C 14.796875 60.265625 17.40625 63.6875 23.203125 63.6875 
C 35 63.6875 35 45.453125 35 41.421875 
C 35 34.265625 31.796875 23.59375 22.296875 23.59375 
z
" id="CMR17-57"/>
      </defs>
      <g transform="translate(30.3504 52.41215)scale(0.1 -0.1)">
       <use transform="scale(0.996264)" xlink:href="#CMR17-57"/>
      </g>
     </g>
    </g>
    <g id="ytick_7">
     <g id="line2d_25">
      <path clip-path="url(#p402d7a55b8)" d="M 42.331735 12.042938 
L 374.624543 12.042938 
" style="fill:none;stroke:#b0b0b0;stroke-dasharray:2.96,1.28;stroke-dashoffset:0;stroke-width:0.8;"/>
     </g>
     <g id="line2d_26">
      <g>
       <use style="stroke:#000000;stroke-width:0.8;" x="42.331735" xlink:href="#mcc487c7aac" y="12.042938"/>
      </g>
     </g>
     <g id="text_14">
      <!-- $10$ -->
      <g transform="translate(25.369064 15.502187)scale(0.1 -0.1)">
       <use transform="scale(0.996264)" xlink:href="#CMR17-49"/>
       <use transform="translate(45.690477 0)scale(0.996264)" xlink:href="#CMR17-48"/>
      </g>
     </g>
    </g>
    <g id="text_15">
     <!-- Loss -->
     <defs>
      <path d="M 54.203125 25.1875 
L 52.40625 25.1875 
C 51.59375 15.328125 50.296875 2.59375 33.203125 2.59375 
L 23.90625 2.59375 
C 19.90625 2.59375 19.703125 3.09375 19.703125 6.46875 
L 19.703125 60.8125 
C 19.703125 64.390625 19.90625 65.390625 27.5 65.390625 
L 29.703125 65.390625 
L 29.703125 68 
C 25.59375 67.796875 20.796875 67.796875 16.703125 67.796875 
C 13.59375 67.796875 8 67.796875 5.09375 68 
L 5.09375 65.390625 
C 12 65.390625 13.09375 65.390625 13.09375 60.90625 
L 13.09375 7.078125 
C 13.09375 2.59375 12 2.59375 5.09375 2.59375 
L 5.09375 0 
L 51.796875 0 
z
" id="CMR17-76"/>
      <path d="M 43.09375 21.1875 
C 43.09375 34 33.796875 44 22.90625 44 
C 12 44 2.703125 34 2.703125 21.1875 
C 2.703125 8.59375 12 -1 22.90625 -1 
C 33.796875 -1 43.09375 8.59375 43.09375 21.1875 
z
M 22.90625 0.796875 
C 18.203125 0.796875 14.203125 3.59375 11.90625 7.5 
C 9.40625 12 9.09375 17.59375 9.09375 22 
C 9.09375 26.1875 9.296875 31.390625 11.90625 35.890625 
C 13.90625 39.1875 17.796875 42.390625 22.90625 42.390625 
C 27.40625 42.390625 31.203125 39.890625 33.59375 36.390625 
C 36.703125 31.6875 36.703125 25.09375 36.703125 22 
C 36.703125 18.09375 36.5 12.09375 33.796875 7.296875 
C 31 2.6875 26.703125 0.796875 22.90625 0.796875 
z
" id="CMR17-111"/>
      <path d="M 30.90625 42 
C 30.90625 43.796875 30.796875 43.890625 30.203125 43.890625 
C 29.796875 43.890625 29.703125 43.796875 28.5 42.296875 
C 28.203125 41.890625 27.296875 40.890625 27 40.5 
C 23.796875 43.890625 19.296875 44 17.59375 44 
C 6.5 44 2.5 38.1875 2.5 32.390625 
C 2.5 23.390625 12.703125 21.296875 15.59375 20.6875 
C 21.90625 19.390625 24.09375 19 26.203125 17.1875 
C 27.5 16 29.703125 13.796875 29.703125 10.1875 
C 29.703125 6 27.296875 0.59375 18.09375 0.59375 
C 9.40625 0.59375 6.296875 7.1875 4.5 16 
C 4.203125 17.390625 4.203125 17.5 3.40625 17.5 
C 2.59375 17.5 2.5 17.390625 2.5 15.390625 
L 2.5 1 
C 2.5 -0.8125 2.59375 -0.90625 3.203125 -0.90625 
C 3.703125 -0.90625 3.796875 -0.8125 4.296875 0 
C 4.90625 0.890625 6.40625 3.296875 7 4.296875 
C 9 1.59375 12.5 -1 18.09375 -1 
C 28 -1 33.296875 4.390625 33.296875 12.1875 
C 33.296875 17.296875 30.59375 20 29.296875 21.1875 
C 26.296875 24.296875 22.796875 25 18.59375 25.796875 
C 13.09375 27 6.09375 28.390625 6.09375 34.5 
C 6.09375 37.09375 7.5 42.59375 17.59375 42.59375 
C 28.296875 42.59375 28.90625 32.59375 29.09375 29.390625 
C 29.203125 28.890625 29.703125 28.796875 30 28.796875 
C 30.90625 28.796875 30.90625 29.09375 30.90625 30.796875 
z
" id="CMR17-115"/>
     </defs>
     <g transform="translate(18.269588 137.707414)rotate(-90)scale(0.16 -0.16)">
      <use transform="scale(0.996264)" xlink:href="#CMR17-76"/>
      <use transform="translate(57.381408 0)scale(0.996264)" xlink:href="#CMR17-111"/>
      <use transform="translate(103.071885 0)scale(0.996264)" xlink:href="#CMR17-115"/>
      <use transform="translate(138.873223 0)scale(0.996264)" xlink:href="#CMR17-115"/>
     </g>
    </g>
   </g>
   <g id="line2d_27">
    <path clip-path="url(#p402d7a55b8)" d="M 42.331735 38.72741 
L 45.654663 78.243551 
L 48.977591 77.880927 
L 52.300519 78.018913 
L 55.623447 78.284685 
L 58.946375 78.857722 
L 62.269303 78.22879 
L 65.592232 78.635599 
L 68.91516 80.378496 
L 72.238088 82.311475 
L 75.561016 86.305019 
L 78.883944 89.069823 
L 82.206872 92.373738 
L 85.5298 95.822599 
L 88.852728 97.779686 
L 92.175656 99.080347 
L 95.498584 101.199151 
L 98.821512 102.855843 
L 102.14444 105.341175 
L 105.467369 105.424808 
L 108.790297 106.703554 
L 112.113225 108.452058 
L 115.436153 110.352512 
L 118.759081 113.253585 
L 122.082009 113.167703 
L 125.404937 115.016695 
L 128.727865 117.459806 
L 132.050793 119.40953 
L 135.373721 120.668449 
L 138.696649 120.07363 
L 142.019577 122.430448 
L 145.342506 123.539662 
L 148.665434 124.439655 
L 151.988362 126.692112 
L 155.31129 126.757372 
L 158.634218 126.919101 
L 161.957146 127.83783 
L 165.280074 130.327405 
L 168.603002 132.554714 
L 171.92593 131.015167 
L 175.248858 132.058235 
L 178.571786 134.555965 
L 181.894714 134.05611 
L 185.217643 135.803856 
L 188.540571 134.960426 
L 191.863499 134.567061 
L 195.186427 136.263435 
L 198.509355 137.061237 
L 201.832283 139.596776 
L 205.155211 139.02308 
L 208.478139 139.361165 
L 211.801067 140.89808 
L 215.123995 140.259101 
L 218.446923 142.757001 
L 221.769851 142.121328 
L 225.09278 141.919995 
L 228.415708 143.673868 
L 231.738636 143.534675 
L 235.061564 145.550025 
L 238.384492 145.34593 
L 241.70742 144.524942 
L 245.030348 144.774461 
L 248.353276 146.933676 
L 251.676204 146.056371 
L 254.999132 147.248193 
L 258.32206 146.87707 
L 261.644988 148.748527 
L 264.967917 147.932666 
L 268.290845 148.977773 
L 271.613773 148.274624 
L 274.936701 148.144275 
L 278.259629 149.338033 
L 281.582557 150.051822 
L 284.905485 150.210844 
L 288.228413 149.737451 
L 291.551341 150.819348 
L 294.874269 151.479887 
L 298.197197 151.252614 
L 301.520125 154.244513 
L 304.843053 151.694694 
L 308.165982 153.407592 
L 311.48891 152.663942 
L 314.811838 153.395806 
L 318.134766 155.656011 
L 321.457694 154.845312 
L 324.780622 153.618487 
L 328.10355 156.915822 
L 331.426478 156.370376 
L 334.749406 156.514642 
L 338.072334 154.851992 
L 341.395262 156.400622 
L 344.71819 156.713188 
L 348.041119 158.57627 
L 351.364047 158.553437 
L 354.686975 158.215921 
L 358.009903 157.858749 
L 361.332831 158.548619 
L 364.655759 158.201595 
L 367.978687 160.037884 
L 371.301615 160.643388 
" style="fill:none;stroke:#1f77b4;stroke-linecap:square;stroke-width:1.5;"/>
   </g>
   <g id="line2d_28">
    <path clip-path="url(#p402d7a55b8)" d="M 42.331735 42.317502 
L 45.654663 88.564607 
L 48.977591 99.387233 
L 52.300519 106.839794 
L 55.623447 113.626367 
L 58.946375 118.233404 
L 62.269303 123.006969 
L 65.592232 126.532645 
L 68.91516 132.337418 
L 72.238088 134.575662 
L 75.561016 137.414369 
L 78.883944 140.382005 
L 82.206872 143.431272 
L 85.5298 145.793661 
L 88.852728 149.506316 
L 92.175656 150.889386 
L 95.498584 153.039307 
L 98.821512 156.103262 
L 102.14444 158.720401 
L 105.467369 162.509185 
L 108.790297 161.669087 
L 112.113225 164.514426 
L 115.436153 165.99482 
L 118.759081 169.644812 
L 122.082009 170.892731 
L 125.404937 171.48458 
L 128.727865 175.175288 
L 132.050793 175.113399 
L 135.373721 176.158636 
L 138.696649 179.973265 
L 142.019577 179.004296 
L 145.342506 182.178054 
L 148.665434 182.970459 
L 151.988362 184.030368 
L 155.31129 185.807052 
L 158.634218 185.343578 
L 161.957146 186.691653 
L 165.280074 189.933779 
L 168.603002 190.743997 
L 171.92593 192.101213 
L 175.248858 191.722303 
L 178.571786 192.40779 
L 181.894714 193.727959 
L 185.217643 195.098677 
L 188.540571 195.549469 
L 191.863499 196.463039 
L 195.186427 196.35513 
L 198.509355 199.060401 
L 201.832283 198.824774 
L 205.155211 199.942722 
L 208.478139 200.43321 
L 211.801067 200.055444 
L 215.123995 201.184326 
L 218.446923 202.248891 
L 221.769851 205.056127 
L 225.09278 205.780445 
L 228.415708 203.293615 
L 231.738636 204.882858 
L 235.061564 207.330115 
L 238.384492 208.051461 
L 241.70742 205.720291 
L 245.030348 207.974046 
L 248.353276 208.83753 
L 251.676204 210.162542 
L 254.999132 209.893572 
L 258.32206 211.564914 
L 261.644988 210.13108 
L 264.967917 210.561953 
L 268.290845 211.745823 
L 271.613773 213.689779 
L 274.936701 210.59319 
L 278.259629 213.413144 
L 281.582557 214.319731 
L 284.905485 213.618114 
L 288.228413 215.561157 
L 291.551341 215.470932 
L 294.874269 214.597372 
L 298.197197 215.826365 
L 301.520125 216.227933 
L 304.843053 217.672142 
L 308.165982 217.30131 
L 311.48891 218.078532 
L 314.811838 217.125748 
L 318.134766 218.753827 
L 321.457694 219.705052 
L 324.780622 220.187958 
L 328.10355 218.852882 
L 331.426478 220.079677 
L 334.749406 220.894388 
L 338.072334 220.484964 
L 341.395262 221.557829 
L 344.71819 219.45928 
L 348.041119 220.862057 
L 351.364047 221.653916 
L 354.686975 223.132347 
L 358.009903 222.664412 
L 361.332831 222.809582 
L 364.655759 222.33802 
L 367.978687 223.650166 
L 371.301615 223.506041 
" style="fill:none;stroke:#ff7f0e;stroke-linecap:square;stroke-width:1.5;"/>
   </g>
   <g id="line2d_29">
    <path clip-path="url(#p402d7a55b8)" d="M 145.342506 233.502714 
L 145.342506 122.772826 
" style="fill:none;stroke:#808080;stroke-dasharray:5.55,2.4;stroke-dashoffset:0;stroke-width:1.5;"/>
   </g>
   <g id="patch_3">
    <path d="M 42.331735 233.502714 
L 42.331735 12.042938 
" style="fill:none;stroke:#000000;stroke-linecap:square;stroke-linejoin:miter;stroke-width:0.8;"/>
   </g>
   <g id="patch_4">
    <path d="M 374.624543 233.502714 
L 374.624543 12.042938 
" style="fill:none;stroke:#000000;stroke-linecap:square;stroke-linejoin:miter;stroke-width:0.8;"/>
   </g>
   <g id="patch_5">
    <path d="M 42.331735 233.502714 
L 374.624543 233.502714 
" style="fill:none;stroke:#000000;stroke-linecap:square;stroke-linejoin:miter;stroke-width:0.8;"/>
   </g>
   <g id="patch_6">
    <path d="M 42.331735 12.042938 
L 374.624543 12.042938 
" style="fill:none;stroke:#000000;stroke-linecap:square;stroke-linejoin:miter;stroke-width:0.8;"/>
   </g>
   <g id="text_16">
    <!-- 7.0 -->
    <defs>
     <path d="M 16.59375 4.09375 
C 16.59375 6.59375 14.59375 8.1875 12.5 8.1875 
C 10.5 8.1875 8.40625 6.59375 8.40625 4.09375 
C 8.40625 1.59375 10.40625 0 12.5 0 
C 14.5 0 16.59375 1.59375 16.59375 4.09375 
z
" id="CMR17-46"/>
    </defs>
    <g transform="translate(145.674798 119.08183)scale(0.14 -0.14)">
     <use transform="scale(0.996264)" xlink:href="#CMR17-55"/>
     <use transform="translate(45.690477 0)scale(0.996264)" xlink:href="#CMR17-46"/>
     <use transform="translate(70.561536 0)scale(0.996264)" xlink:href="#CMR17-48"/>
    </g>
   </g>
   <g id="text_17">
    <!-- 5.4 -->
    <g transform="translate(149.662312 178.13777)scale(0.14 -0.14)">
     <use transform="scale(0.996264)" xlink:href="#CMR17-53"/>
     <use transform="translate(45.690477 0)scale(0.996264)" xlink:href="#CMR17-46"/>
     <use transform="translate(70.561536 0)scale(0.996264)" xlink:href="#CMR17-52"/>
    </g>
   </g>
   <g id="legend_1">
    <g id="patch_7">
     <path d="M 253.074662 62.266995 
L 364.824543 62.266995 
Q 367.624543 62.266995 367.624543 59.466995 
L 367.624543 21.842938 
Q 367.624543 19.042938 364.824543 19.042938 
L 253.074662 19.042938 
Q 250.274662 19.042938 250.274662 21.842938 
L 250.274662 59.466995 
Q 250.274662 62.266995 253.074662 62.266995 
z
" style="fill:#ffffff;opacity:0.8;stroke:#000000;stroke-linejoin:miter;"/>
    </g>
    <g id="line2d_30">
     <path d="M 255.874662 29.542938 
L 283.874662 29.542938 
" style="fill:none;stroke:#1f77b4;stroke-linecap:square;stroke-width:1.5;"/>
    </g>
    <g id="line2d_31"/>
    <g id="text_18">
     <!-- Baseline -->
     <defs>
      <path d="M 5.203125 68 
L 5.203125 65.390625 
C 12.09375 65.390625 13.203125 65.390625 13.203125 60.890625 
L 13.203125 7.046875 
C 13.203125 2.59375 12.09375 2.59375 5.203125 2.59375 
L 5.203125 0 
L 39.59375 0 
C 52.40625 0 60.703125 9.03125 60.703125 18.046875 
C 60.703125 26.96875 52.5 34.59375 41.796875 35.296875 
C 51.40625 37.1875 58.09375 43.59375 58.09375 51.1875 
C 58.09375 59.5 49.90625 68 37 68 
z
M 19.5 36 
L 19.5 61.5 
C 19.5 64.890625 19.703125 65.390625 23.703125 65.390625 
L 36.5 65.390625 
C 46.40625 65.390625 50.796875 57.390625 50.796875 51.1875 
C 50.796875 43.59375 44.703125 36 33.90625 36 
z
M 23.703125 2.59375 
C 19.703125 2.59375 19.5 3.09375 19.5 6.453125 
L 19.5 34.390625 
L 38 34.390625 
C 48.296875 34.390625 53.296875 25.375 53.296875 18.140625 
C 53.296875 10.90625 47.59375 2.59375 36.703125 2.59375 
z
" id="CMR17-66"/>
      <path d="M 15.296875 69 
L 3.40625 67.890625 
L 3.40625 65.296875 
C 9.296875 65.296875 10.203125 64.703125 10.203125 59.921875 
L 10.203125 6.859375 
C 10.203125 3.09375 9.796875 2.59375 3.40625 2.59375 
L 3.40625 0 
C 5.796875 0.1875 10.203125 0.1875 12.703125 0.1875 
C 15.296875 0.1875 19.703125 0.1875 22.09375 0 
L 22.09375 2.59375 
C 15.703125 2.59375 15.296875 2.984375 15.296875 6.859375 
z
" id="CMR17-108"/>
     </defs>
     <g transform="translate(295.074662 34.442938)scale(0.14 -0.14)">
      <use transform="scale(0.996264)" xlink:href="#CMR17-66"/>
      <use transform="translate(65.188754 0)scale(0.996264)" xlink:href="#CMR17-97"/>
      <use transform="translate(110.879232 0)scale(0.996264)" xlink:href="#CMR17-115"/>
      <use transform="translate(146.680569 0)scale(0.996264)" xlink:href="#CMR17-101"/>
      <use transform="translate(187.16623 0)scale(0.996264)" xlink:href="#CMR17-108"/>
      <use transform="translate(212.037288 0)scale(0.996264)" xlink:href="#CMR17-105"/>
      <use transform="translate(236.908347 0)scale(0.996264)" xlink:href="#CMR17-110"/>
      <use transform="translate(287.803716 0)scale(0.996264)" xlink:href="#CMR17-101"/>
     </g>
    </g>
    <g id="line2d_32">
     <path d="M 255.874662 49.054967 
L 283.874662 49.054967 
" style="fill:none;stroke:#ff7f0e;stroke-linecap:square;stroke-width:1.5;"/>
    </g>
    <g id="line2d_33"/>
    <g id="text_19">
     <!-- LayerNorm -->
     <defs>
      <path d="M 39 34.109375 
C 41.5 40.296875 46 40.390625 47.40625 40.390625 
L 47.40625 43 
C 45.5 42.890625 43 42.796875 41.09375 42.796875 
C 39 42.796875 35.703125 42.796875 33.703125 43 
L 33.703125 40.390625 
C 37.5 40.09375 37.59375 37.25 37.59375 36.4375 
C 37.59375 35.4375 37.40625 34.921875 36.90625 33.71875 
L 26 6.390625 
L 14.09375 35.9375 
C 13.59375 37.15625 13.59375 37.859375 13.59375 37.96875 
C 13.59375 40.1875 15.90625 40.390625 18.296875 40.390625 
L 18.296875 43 
C 15.90625 42.796875 11.59375 42.796875 9.09375 42.796875 
C 6.40625 42.796875 3.203125 42.796875 1 43 
L 1 40.390625 
C 6.40625 40.390625 7 39.890625 8.296875 36.640625 
L 23.203125 -0.484375 
C 18.703125 -12.421875 16.09375 -19.40625 9.796875 -19.40625 
C 8.703125 -19.40625 6.203125 -19.109375 4.40625 -17.28125 
C 6.703125 -17.078125 7.703125 -15.65625 7.703125 -13.9375 
C 7.703125 -12.21875 6.5 -10.703125 4.5 -10.703125 
C 2.296875 -10.703125 1.203125 -12.21875 1.203125 -14.046875 
C 1.203125 -18.09375 5.296875 -21 9.796875 -21 
C 15.59375 -21 19.203125 -15.359375 21.203125 -10.296875 
z
" id="CMR17-121"/>
      <path d="M 20.5 66.796875 
C 19.796875 67.890625 19.703125 68 17.796875 68 
L 5.09375 68 
L 5.09375 65.390625 
L 7 65.390625 
C 11 65.390625 12.796875 64.890625 13.09375 64.796875 
L 13.09375 9.75 
C 13.09375 7.265625 13.09375 2.59375 5.09375 2.59375 
L 5.09375 0 
C 7.40625 0.1875 11.59375 0.1875 14.09375 0.1875 
C 16.59375 0.1875 20.796875 0.1875 23.09375 0 
L 23.09375 2.59375 
C 15.09375 2.59375 15.09375 7.265625 15.09375 9.75 
L 15.09375 63.390625 
C 15.796875 62.796875 15.796875 62.609375 16.5 61.609375 
L 53.59375 1.1875 
C 54.296875 0 54.59375 0 55.09375 0 
C 56.09375 0 56.09375 0.296875 56.09375 2.1875 
L 56.09375 58.21875 
C 56.09375 60.703125 56.09375 65.390625 64.09375 65.390625 
L 64.09375 68 
C 61.796875 67.796875 57.59375 67.796875 55.09375 67.796875 
C 52.59375 67.796875 48.40625 67.796875 46.09375 68 
L 46.09375 65.390625 
C 54.09375 65.390625 54.09375 60.703125 54.09375 58.21875 
L 54.09375 12.140625 
z
" id="CMR17-78"/>
      <path d="M 67.59375 30.53125 
C 67.59375 35.5625 66.703125 44 54.796875 44 
C 48 44 43.296875 39.375 41.5 33.953125 
L 41.40625 33.953125 
C 40.203125 42.1875 34.296875 44 28.703125 44 
C 20.796875 44 16.703125 37.875 15.203125 33.84375 
L 15.09375 33.84375 
L 15.09375 44 
L 3.296875 42.890625 
L 3.296875 40.28125 
C 9.203125 40.28125 10.09375 39.6875 10.09375 34.859375 
L 10.09375 6.921875 
C 10.09375 3.09375 9.703125 2.59375 3.296875 2.59375 
L 3.296875 0 
C 5.703125 0.1875 10.09375 0.1875 12.703125 0.1875 
C 15.296875 0.1875 19.796875 0.1875 22.203125 0 
L 22.203125 2.59375 
C 15.796875 2.59375 15.40625 3 15.40625 6.921875 
L 15.40625 26.21875 
C 15.40625 35.453125 21 42.390625 28 42.390625 
C 35.40625 42.390625 36.203125 35.765625 36.203125 30.9375 
L 36.203125 6.921875 
C 36.203125 3.09375 35.796875 2.59375 29.40625 2.59375 
L 29.40625 0 
C 31.796875 0.1875 36.203125 0.1875 38.796875 0.1875 
C 41.40625 0.1875 45.90625 0.1875 48.296875 0 
L 48.296875 2.59375 
C 41.90625 2.59375 41.5 3 41.5 6.921875 
L 41.5 26.21875 
C 41.5 35.453125 47.09375 42.390625 54.09375 42.390625 
C 61.5 42.390625 62.296875 35.765625 62.296875 30.9375 
L 62.296875 6.921875 
C 62.296875 3.09375 61.90625 2.59375 55.5 2.59375 
L 55.5 0 
C 57.90625 0.1875 62.296875 0.1875 64.90625 0.1875 
C 67.5 0.1875 72 0.1875 74.40625 0 
L 74.40625 2.59375 
C 68 2.59375 67.59375 3 67.59375 6.921875 
z
" id="CMR17-109"/>
     </defs>
     <g transform="translate(295.074662 53.954967)scale(0.14 -0.14)">
      <use transform="scale(0.996264)" xlink:href="#CMR17-76"/>
      <use transform="translate(57.381408 0)scale(0.996264)" xlink:href="#CMR17-97"/>
      <use transform="translate(100.469431 0)scale(0.996264)" xlink:href="#CMR17-121"/>
      <use transform="translate(146.159893 0)scale(0.996264)" xlink:href="#CMR17-101"/>
      <use transform="translate(186.645553 0)scale(0.996264)" xlink:href="#CMR17-114"/>
      <use transform="translate(221.926321 0)scale(0.996264)" xlink:href="#CMR17-78"/>
      <use transform="translate(290.998751 0)scale(0.996264)" xlink:href="#CMR17-111"/>
      <use transform="translate(336.689228 0)scale(0.996264)" xlink:href="#CMR17-114"/>
      <use transform="translate(371.969996 0)scale(0.996264)" xlink:href="#CMR17-109"/>
     </g>
    </g>
   </g>
  </g>
  <g id="axes_2">
   <g id="patch_8">
    <path d="M 433.393523 233.502714 
L 765.686332 233.502714 
L 765.686332 12.042938 
L 433.393523 12.042938 
z
" style="fill:#ffffff;"/>
   </g>
   <g id="PathCollection_3">
    <g clip-path="url(#p04c9223cb9)">
     <use style="fill:#ff0000;stroke:#ff0000;" x="506.082575" xlink:href="#m568f57b5bf" y="122.772826"/>
    </g>
   </g>
   <g id="PathCollection_4">
    <g clip-path="url(#p04c9223cb9)">
     <use style="fill:#ff0000;stroke:#ff0000;" x="506.082575" xlink:href="#m568f57b5bf" y="163.373785"/>
    </g>
   </g>
   <g id="matplotlib.axis_3">
    <g id="xtick_7">
     <g id="line2d_34">
      <path clip-path="url(#p04c9223cb9)" d="M 433.393523 233.502714 
L 433.393523 12.042938 
" style="fill:none;stroke:#b0b0b0;stroke-dasharray:2.96,1.28;stroke-dashoffset:0;stroke-width:0.8;"/>
     </g>
     <g id="line2d_35">
      <g>
       <use style="stroke:#000000;stroke-width:0.8;" x="433.393523" xlink:href="#md07939e142" y="233.502714"/>
      </g>
     </g>
     <g id="text_20">
      <!-- $0$ -->
      <g transform="translate(429.979279 250.188591)scale(0.14 -0.14)">
       <use transform="scale(0.996264)" xlink:href="#CMR17-48"/>
      </g>
     </g>
    </g>
    <g id="xtick_8">
     <g id="line2d_36">
      <path clip-path="url(#p04c9223cb9)" d="M 474.930124 233.502714 
L 474.930124 12.042938 
" style="fill:none;stroke:#b0b0b0;stroke-dasharray:2.96,1.28;stroke-dashoffset:0;stroke-width:0.8;"/>
     </g>
     <g id="line2d_37">
      <g>
       <use style="stroke:#000000;stroke-width:0.8;" x="474.930124" xlink:href="#md07939e142" y="233.502714"/>
      </g>
     </g>
     <g id="text_21">
      <!-- $20$ -->
      <g transform="translate(468.101636 250.188591)scale(0.14 -0.14)">
       <use transform="scale(0.996264)" xlink:href="#CMR17-50"/>
       <use transform="translate(45.690477 0)scale(0.996264)" xlink:href="#CMR17-48"/>
      </g>
     </g>
    </g>
    <g id="xtick_9">
     <g id="line2d_38">
      <path clip-path="url(#p04c9223cb9)" d="M 516.466725 233.502714 
L 516.466725 12.042938 
" style="fill:none;stroke:#b0b0b0;stroke-dasharray:2.96,1.28;stroke-dashoffset:0;stroke-width:0.8;"/>
     </g>
     <g id="line2d_39">
      <g>
       <use style="stroke:#000000;stroke-width:0.8;" x="516.466725" xlink:href="#md07939e142" y="233.502714"/>
      </g>
     </g>
     <g id="text_22">
      <!-- $40$ -->
      <g transform="translate(509.638237 250.188591)scale(0.14 -0.14)">
       <use transform="scale(0.996264)" xlink:href="#CMR17-52"/>
       <use transform="translate(45.690477 0)scale(0.996264)" xlink:href="#CMR17-48"/>
      </g>
     </g>
    </g>
    <g id="xtick_10">
     <g id="line2d_40">
      <path clip-path="url(#p04c9223cb9)" d="M 558.003326 233.502714 
L 558.003326 12.042938 
" style="fill:none;stroke:#b0b0b0;stroke-dasharray:2.96,1.28;stroke-dashoffset:0;stroke-width:0.8;"/>
     </g>
     <g id="line2d_41">
      <g>
       <use style="stroke:#000000;stroke-width:0.8;" x="558.003326" xlink:href="#md07939e142" y="233.502714"/>
      </g>
     </g>
     <g id="text_23">
      <!-- $60$ -->
      <g transform="translate(551.174838 250.188591)scale(0.14 -0.14)">
       <use transform="scale(0.996264)" xlink:href="#CMR17-54"/>
       <use transform="translate(45.690477 0)scale(0.996264)" xlink:href="#CMR17-48"/>
      </g>
     </g>
    </g>
    <g id="xtick_11">
     <g id="line2d_42">
      <path clip-path="url(#p04c9223cb9)" d="M 599.539927 233.502714 
L 599.539927 12.042938 
" style="fill:none;stroke:#b0b0b0;stroke-dasharray:2.96,1.28;stroke-dashoffset:0;stroke-width:0.8;"/>
     </g>
     <g id="line2d_43">
      <g>
       <use style="stroke:#000000;stroke-width:0.8;" x="599.539927" xlink:href="#md07939e142" y="233.502714"/>
      </g>
     </g>
     <g id="text_24">
      <!-- $80$ -->
      <g transform="translate(592.711439 250.188591)scale(0.14 -0.14)">
       <use transform="scale(0.996264)" xlink:href="#CMR17-56"/>
       <use transform="translate(45.690477 0)scale(0.996264)" xlink:href="#CMR17-48"/>
      </g>
     </g>
    </g>
    <g id="xtick_12">
     <g id="line2d_44">
      <path clip-path="url(#p04c9223cb9)" d="M 641.076528 233.502714 
L 641.076528 12.042938 
" style="fill:none;stroke:#b0b0b0;stroke-dasharray:2.96,1.28;stroke-dashoffset:0;stroke-width:0.8;"/>
     </g>
     <g id="line2d_45">
      <g>
       <use style="stroke:#000000;stroke-width:0.8;" x="641.076528" xlink:href="#md07939e142" y="233.502714"/>
      </g>
     </g>
     <g id="text_25">
      <!-- $100$ -->
      <g transform="translate(630.833796 250.188591)scale(0.14 -0.14)">
       <use transform="scale(0.996264)" xlink:href="#CMR17-49"/>
       <use transform="translate(45.690477 0)scale(0.996264)" xlink:href="#CMR17-48"/>
       <use transform="translate(91.380954 0)scale(0.996264)" xlink:href="#CMR17-48"/>
      </g>
     </g>
    </g>
    <g id="xtick_13">
     <g id="line2d_46">
      <path clip-path="url(#p04c9223cb9)" d="M 682.61313 233.502714 
L 682.61313 12.042938 
" style="fill:none;stroke:#b0b0b0;stroke-dasharray:2.96,1.28;stroke-dashoffset:0;stroke-width:0.8;"/>
     </g>
     <g id="line2d_47">
      <g>
       <use style="stroke:#000000;stroke-width:0.8;" x="682.61313" xlink:href="#md07939e142" y="233.502714"/>
      </g>
     </g>
     <g id="text_26">
      <!-- $120$ -->
      <g transform="translate(672.370397 250.188591)scale(0.14 -0.14)">
       <use transform="scale(0.996264)" xlink:href="#CMR17-49"/>
       <use transform="translate(45.690477 0)scale(0.996264)" xlink:href="#CMR17-50"/>
       <use transform="translate(91.380954 0)scale(0.996264)" xlink:href="#CMR17-48"/>
      </g>
     </g>
    </g>
    <g id="xtick_14">
     <g id="line2d_48">
      <path clip-path="url(#p04c9223cb9)" d="M 724.149731 233.502714 
L 724.149731 12.042938 
" style="fill:none;stroke:#b0b0b0;stroke-dasharray:2.96,1.28;stroke-dashoffset:0;stroke-width:0.8;"/>
     </g>
     <g id="line2d_49">
      <g>
       <use style="stroke:#000000;stroke-width:0.8;" x="724.149731" xlink:href="#md07939e142" y="233.502714"/>
      </g>
     </g>
     <g id="text_27">
      <!-- $140$ -->
      <g transform="translate(713.906998 250.188591)scale(0.14 -0.14)">
       <use transform="scale(0.996264)" xlink:href="#CMR17-49"/>
       <use transform="translate(45.690477 0)scale(0.996264)" xlink:href="#CMR17-52"/>
       <use transform="translate(91.380954 0)scale(0.996264)" xlink:href="#CMR17-48"/>
      </g>
     </g>
    </g>
    <g id="xtick_15">
     <g id="line2d_50">
      <path clip-path="url(#p04c9223cb9)" d="M 765.686332 233.502714 
L 765.686332 12.042938 
" style="fill:none;stroke:#b0b0b0;stroke-dasharray:2.96,1.28;stroke-dashoffset:0;stroke-width:0.8;"/>
     </g>
     <g id="line2d_51">
      <g>
       <use style="stroke:#000000;stroke-width:0.8;" x="765.686332" xlink:href="#md07939e142" y="233.502714"/>
      </g>
     </g>
     <g id="text_28">
      <!-- $160$ -->
      <g transform="translate(755.443599 250.188591)scale(0.14 -0.14)">
       <use transform="scale(0.996264)" xlink:href="#CMR17-49"/>
       <use transform="translate(45.690477 0)scale(0.996264)" xlink:href="#CMR17-54"/>
       <use transform="translate(91.380954 0)scale(0.996264)" xlink:href="#CMR17-48"/>
      </g>
     </g>
    </g>
    <g id="text_29">
     <!-- Training Time (in minutes) -->
     <defs>
      <path d="M 29.40625 42.890625 
L 29.40625 40.296875 
C 35.296875 40.296875 36.203125 39.6875 36.203125 34.828125 
L 36.203125 16.453125 
C 36.203125 7.96875 31.703125 0.59375 24.296875 0.59375 
C 16.09375 0.59375 15.40625 5.546875 15.40625 10.796875 
L 15.40625 44 
L 3.296875 42.890625 
L 3.296875 40.296875 
C 7.296875 40.296875 10 40.296875 10.09375 36.25 
L 10.09375 16.859375 
C 10.09375 10.09375 10.09375 5.75 12.703125 2.921875 
C 14 1.609375 16.5 -1 23.703125 -1 
C 32.203125 -1 35.5 6.25 36.296875 8.375 
L 36.40625 8.375 
L 36.40625 -1 
L 48.296875 -0.203125 
L 48.296875 2.40625 
C 42.40625 2.40625 41.5 3.015625 41.5 7.859375 
L 41.5 44 
z
" id="CMR17-117"/>
     </defs>
     <g transform="translate(505.848728 268.855787)scale(0.16 -0.16)">
      <use transform="scale(0.996264)" xlink:href="#CMR17-84"/>
      <use transform="translate(58.702625 0)scale(0.996264)" xlink:href="#CMR17-114"/>
      <use transform="translate(93.983393 0)scale(0.996264)" xlink:href="#CMR17-97"/>
      <use transform="translate(139.67387 0)scale(0.996264)" xlink:href="#CMR17-105"/>
      <use transform="translate(164.544929 0)scale(0.996264)" xlink:href="#CMR17-110"/>
      <use transform="translate(215.440298 0)scale(0.996264)" xlink:href="#CMR17-105"/>
      <use transform="translate(240.311357 0)scale(0.996264)" xlink:href="#CMR17-110"/>
      <use transform="translate(291.206727 0)scale(0.996264)" xlink:href="#CMR17-103"/>
      <use transform="translate(366.97317 0)scale(0.996264)" xlink:href="#CMR17-84"/>
      <use transform="translate(433.483051 0)scale(0.996264)" xlink:href="#CMR17-105"/>
      <use transform="translate(458.354109 0)scale(0.996264)" xlink:href="#CMR17-109"/>
      <use transform="translate(535.273699 0)scale(0.996264)" xlink:href="#CMR17-101"/>
      <use transform="translate(605.835326 0)scale(0.996264)" xlink:href="#CMR17-40"/>
      <use transform="translate(641.116094 0)scale(0.996264)" xlink:href="#CMR17-105"/>
      <use transform="translate(665.987152 0)scale(0.996264)" xlink:href="#CMR17-110"/>
      <use transform="translate(746.958488 0)scale(0.996264)" xlink:href="#CMR17-109"/>
      <use transform="translate(823.878078 0)scale(0.996264)" xlink:href="#CMR17-105"/>
      <use transform="translate(848.749137 0)scale(0.996264)" xlink:href="#CMR17-110"/>
      <use transform="translate(897.042052 0)scale(0.996264)" xlink:href="#CMR17-117"/>
      <use transform="translate(947.937422 0)scale(0.996264)" xlink:href="#CMR17-116"/>
      <use transform="translate(983.21819 0)scale(0.996264)" xlink:href="#CMR17-101"/>
      <use transform="translate(1023.70385 0)scale(0.996264)" xlink:href="#CMR17-115"/>
      <use transform="translate(1059.505188 0)scale(0.996264)" xlink:href="#CMR17-41"/>
     </g>
    </g>
   </g>
   <g id="matplotlib.axis_4">
    <g id="ytick_8">
     <g id="line2d_52">
      <path clip-path="url(#p04c9223cb9)" d="M 433.393523 233.502714 
L 765.686332 233.502714 
" style="fill:none;stroke:#b0b0b0;stroke-dasharray:2.96,1.28;stroke-dashoffset:0;stroke-width:0.8;"/>
     </g>
     <g id="line2d_53">
      <g>
       <use style="stroke:#000000;stroke-width:0.8;" x="433.393523" xlink:href="#mcc487c7aac" y="233.502714"/>
      </g>
     </g>
     <g id="text_30">
      <!-- $4$ -->
      <g transform="translate(419.565035 238.345652)scale(0.14 -0.14)">
       <use transform="scale(0.996264)" xlink:href="#CMR17-52"/>
      </g>
     </g>
    </g>
    <g id="ytick_9">
     <g id="line2d_54">
      <path clip-path="url(#p04c9223cb9)" d="M 433.393523 196.592751 
L 765.686332 196.592751 
" style="fill:none;stroke:#b0b0b0;stroke-dasharray:2.96,1.28;stroke-dashoffset:0;stroke-width:0.8;"/>
     </g>
     <g id="line2d_55">
      <g>
       <use style="stroke:#000000;stroke-width:0.8;" x="433.393523" xlink:href="#mcc487c7aac" y="196.592751"/>
      </g>
     </g>
     <g id="text_31">
      <!-- $5$ -->
      <g transform="translate(419.565035 201.43569)scale(0.14 -0.14)">
       <use transform="scale(0.996264)" xlink:href="#CMR17-53"/>
      </g>
     </g>
    </g>
    <g id="ytick_10">
     <g id="line2d_56">
      <path clip-path="url(#p04c9223cb9)" d="M 433.393523 159.682789 
L 765.686332 159.682789 
" style="fill:none;stroke:#b0b0b0;stroke-dasharray:2.96,1.28;stroke-dashoffset:0;stroke-width:0.8;"/>
     </g>
     <g id="line2d_57">
      <g>
       <use style="stroke:#000000;stroke-width:0.8;" x="433.393523" xlink:href="#mcc487c7aac" y="159.682789"/>
      </g>
     </g>
     <g id="text_32">
      <!-- $6$ -->
      <g transform="translate(419.565035 164.525727)scale(0.14 -0.14)">
       <use transform="scale(0.996264)" xlink:href="#CMR17-54"/>
      </g>
     </g>
    </g>
    <g id="ytick_11">
     <g id="line2d_58">
      <path clip-path="url(#p04c9223cb9)" d="M 433.393523 122.772826 
L 765.686332 122.772826 
" style="fill:none;stroke:#b0b0b0;stroke-dasharray:2.96,1.28;stroke-dashoffset:0;stroke-width:0.8;"/>
     </g>
     <g id="line2d_59">
      <g>
       <use style="stroke:#000000;stroke-width:0.8;" x="433.393523" xlink:href="#mcc487c7aac" y="122.772826"/>
      </g>
     </g>
     <g id="text_33">
      <!-- $7$ -->
      <g transform="translate(419.565035 127.615764)scale(0.14 -0.14)">
       <use transform="scale(0.996264)" xlink:href="#CMR17-55"/>
      </g>
     </g>
    </g>
    <g id="ytick_12">
     <g id="line2d_60">
      <path clip-path="url(#p04c9223cb9)" d="M 433.393523 85.862864 
L 765.686332 85.862864 
" style="fill:none;stroke:#b0b0b0;stroke-dasharray:2.96,1.28;stroke-dashoffset:0;stroke-width:0.8;"/>
     </g>
     <g id="line2d_61">
      <g>
       <use style="stroke:#000000;stroke-width:0.8;" x="433.393523" xlink:href="#mcc487c7aac" y="85.862864"/>
      </g>
     </g>
     <g id="text_34">
      <!-- $8$ -->
      <g transform="translate(419.565035 90.705802)scale(0.14 -0.14)">
       <use transform="scale(0.996264)" xlink:href="#CMR17-56"/>
      </g>
     </g>
    </g>
    <g id="ytick_13">
     <g id="line2d_62">
      <path clip-path="url(#p04c9223cb9)" d="M 433.393523 48.952901 
L 765.686332 48.952901 
" style="fill:none;stroke:#b0b0b0;stroke-dasharray:2.96,1.28;stroke-dashoffset:0;stroke-width:0.8;"/>
     </g>
     <g id="line2d_63">
      <g>
       <use style="stroke:#000000;stroke-width:0.8;" x="433.393523" xlink:href="#mcc487c7aac" y="48.952901"/>
      </g>
     </g>
     <g id="text_35">
      <!-- $9$ -->
      <g transform="translate(419.565035 53.795839)scale(0.14 -0.14)">
       <use transform="scale(0.996264)" xlink:href="#CMR17-57"/>
      </g>
     </g>
    </g>
    <g id="ytick_14">
     <g id="line2d_64">
      <path clip-path="url(#p04c9223cb9)" d="M 433.393523 12.042938 
L 765.686332 12.042938 
" style="fill:none;stroke:#b0b0b0;stroke-dasharray:2.96,1.28;stroke-dashoffset:0;stroke-width:0.8;"/>
     </g>
     <g id="line2d_65">
      <g>
       <use style="stroke:#000000;stroke-width:0.8;" x="433.393523" xlink:href="#mcc487c7aac" y="12.042938"/>
      </g>
     </g>
     <g id="text_36">
      <!-- $10$ -->
      <g transform="translate(412.736546 16.885876)scale(0.14 -0.14)">
       <use transform="scale(0.996264)" xlink:href="#CMR17-49"/>
       <use transform="translate(45.690477 0)scale(0.996264)" xlink:href="#CMR17-48"/>
      </g>
     </g>
    </g>
    <g id="text_37">
     <!-- Loss -->
     <g transform="translate(405.63707 137.707414)rotate(-90)scale(0.16 -0.16)">
      <use transform="scale(0.996264)" xlink:href="#CMR17-76"/>
      <use transform="translate(57.381408 0)scale(0.996264)" xlink:href="#CMR17-111"/>
      <use transform="translate(103.071885 0)scale(0.996264)" xlink:href="#CMR17-115"/>
      <use transform="translate(138.873223 0)scale(0.996264)" xlink:href="#CMR17-115"/>
     </g>
    </g>
   </g>
   <g id="line2d_66">
    <path clip-path="url(#p04c9223cb9)" d="M 435.657268 38.72741 
L 437.921013 78.243551 
L 440.247063 77.880927 
L 442.552344 78.018913 
L 444.857625 78.284685 
L 447.204443 78.857722 
L 449.551261 78.22879 
L 451.898079 78.635599 
L 454.161824 80.378496 
L 456.487874 82.311475 
L 458.85546 86.305019 
L 461.202278 89.069823 
L 463.528327 92.373738 
L 465.833609 95.822599 
L 468.159658 97.779686 
L 470.527245 99.080347 
L 472.832526 101.199151 
L 475.158576 102.855843 
L 477.443089 105.341175 
L 479.789907 105.424808 
L 482.136725 106.703554 
L 484.462774 108.452058 
L 486.788824 110.352512 
L 489.073337 113.253585 
L 491.420155 113.167703 
L 493.746205 115.016695 
L 496.051486 117.459806 
L 498.335999 119.40953 
L 500.64128 120.668449 
L 503.008867 120.07363 
L 505.334916 122.430448 
L 507.640198 123.539662 
L 509.966247 124.439655 
L 512.271529 126.692112 
L 514.618347 126.757372 
L 516.965165 126.919101 
L 519.270446 127.83783 
L 521.575727 130.327405 
L 523.86024 132.554714 
L 526.207058 131.015167 
L 528.533108 132.058235 
L 530.838389 134.555965 
L 533.143671 134.05611 
L 535.448952 135.803856 
L 537.79577 134.960426 
L 540.142588 134.567061 
L 542.468638 136.263435 
L 544.794687 137.061237 
L 547.099969 139.596776 
L 549.426018 139.02308 
L 551.752068 139.361165 
L 554.057349 140.89808 
L 556.383399 140.259101 
L 558.667912 142.757001 
L 561.01473 142.121328 
L 563.320011 141.919995 
L 565.646061 143.673868 
L 567.951342 143.534675 
L 570.235855 145.550025 
L 572.541137 145.34593 
L 574.887955 144.524942 
L 577.214004 144.774461 
L 579.540054 146.933676 
L 581.845335 146.056371 
L 584.171385 147.248193 
L 586.497435 146.87707 
L 588.781948 148.748527 
L 591.087229 147.932666 
L 593.413279 148.977773 
L 595.760097 148.274624 
L 598.106915 148.144275 
L 600.432964 149.338033 
L 602.738246 150.051822 
L 605.064295 150.210844 
L 607.431882 149.737451 
L 609.757931 150.819348 
L 612.083981 151.479887 
L 614.430799 151.252614 
L 616.715312 154.244513 
L 619.06213 151.694694 
L 621.367411 153.407592 
L 623.714229 152.663942 
L 626.019511 153.395806 
L 628.366329 155.656011 
L 630.692378 154.845312 
L 633.039196 153.618487 
L 635.344478 156.915822 
L 637.649759 156.370376 
L 639.95504 156.514642 
L 642.301858 154.851992 
L 644.648676 156.400622 
L 646.974726 156.713188 
L 649.259239 158.57627 
L 651.585289 158.553437 
L 653.911338 158.215921 
L 656.237388 157.858749 
L 658.542669 158.548619 
L 660.868719 158.201595 
L 663.174 160.037884 
L 665.50005 160.643388 
" style="fill:none;stroke:#1f77b4;stroke-linecap:square;stroke-width:1.5;"/>
   </g>
   <g id="line2d_67">
    <path clip-path="url(#p04c9223cb9)" d="M 436.841061 42.317502 
L 440.101684 88.564607 
L 443.362308 99.387233 
L 446.622931 106.839794 
L 449.862786 113.626367 
L 453.185714 118.233404 
L 456.446337 123.006969 
L 459.70696 126.532645 
L 462.926047 132.337418 
L 466.18667 134.575662 
L 469.447293 137.414369 
L 472.728685 140.382005 
L 475.968539 143.431272 
L 479.208394 145.793661 
L 482.469017 149.506316 
L 485.771177 150.889386 
L 489.0318 153.039307 
L 492.271655 156.103262 
L 495.469974 158.720401 
L 498.668292 162.509185 
L 501.970452 161.669087 
L 505.231075 164.514426 
L 508.491698 165.99482 
L 511.710785 169.644812 
L 514.950639 170.892731 
L 518.232031 171.48458 
L 521.492654 175.175288 
L 524.753277 175.113399 
L 527.993132 176.158636 
L 531.253755 179.973265 
L 534.555915 179.004296 
L 537.775002 182.178054 
L 541.014857 182.970459 
L 544.254711 184.030368 
L 547.494566 185.807052 
L 550.838263 185.343578 
L 554.119654 186.691653 
L 557.338741 189.933779 
L 560.537059 190.743997 
L 563.756146 192.101213 
L 567.058305 191.722303 
L 570.339697 192.40779 
L 573.641857 193.727959 
L 576.860943 195.098677 
L 580.100798 195.549469 
L 583.423726 196.463039 
L 586.725886 196.35513 
L 589.965741 199.060401 
L 593.226364 198.824774 
L 596.424682 199.942722 
L 599.726842 200.43321 
L 602.987465 200.055444 
L 606.268857 201.184326 
L 609.508712 202.248891 
L 612.70703 205.056127 
L 615.967653 205.780445 
L 619.290581 203.293615 
L 622.551204 204.882858 
L 625.770291 207.330115 
L 629.010146 208.051461 
L 632.333074 205.720291 
L 635.614465 207.974046 
L 638.875089 208.83753 
L 642.073407 210.162542 
L 645.313262 209.893572 
L 648.573885 211.564914 
L 651.876045 210.13108 
L 655.136668 210.561953 
L 658.355755 211.745823 
L 661.574841 213.689779 
L 664.897769 210.59319 
L 668.137624 213.413144 
L 671.398247 214.319731 
L 674.65887 213.618114 
L 677.898725 215.561157 
L 681.180117 215.470932 
L 684.482277 214.597372 
L 687.7429 215.826365 
L 690.961986 216.227933 
L 694.201841 217.672142 
L 697.524769 217.30131 
L 700.806161 218.078532 
L 704.087552 217.125748 
L 707.285871 218.753827 
L 710.525725 219.705052 
L 713.807117 220.187958 
L 717.088508 218.852882 
L 720.349132 220.079677 
L 723.588986 220.894388 
L 726.808073 220.484964 
L 730.089464 221.557829 
L 733.433161 219.45928 
L 736.714552 220.862057 
L 739.975176 221.653916 
L 743.194262 223.132347 
L 746.454885 222.664412 
L 749.757045 222.809582 
L 753.017668 222.33802 
L 756.257523 223.650166 
L 759.518146 223.506041 
" style="fill:none;stroke:#ff7f0e;stroke-linecap:square;stroke-width:1.5;"/>
   </g>
   <g id="line2d_68">
    <path clip-path="url(#p04c9223cb9)" d="M 506.082575 233.502714 
L 506.082575 122.772826 
" style="fill:none;stroke:#808080;stroke-dasharray:5.55,2.4;stroke-dashoffset:0;stroke-width:1.5;"/>
   </g>
   <g id="patch_9">
    <path d="M 433.393523 233.502714 
L 433.393523 12.042938 
" style="fill:none;stroke:#000000;stroke-linecap:square;stroke-linejoin:miter;stroke-width:0.8;"/>
   </g>
   <g id="patch_10">
    <path d="M 765.686332 233.502714 
L 765.686332 12.042938 
" style="fill:none;stroke:#000000;stroke-linecap:square;stroke-linejoin:miter;stroke-width:0.8;"/>
   </g>
   <g id="patch_11">
    <path d="M 433.393523 233.502714 
L 765.686332 233.502714 
" style="fill:none;stroke:#000000;stroke-linecap:square;stroke-linejoin:miter;stroke-width:0.8;"/>
   </g>
   <g id="patch_12">
    <path d="M 433.393523 12.042938 
L 765.686332 12.042938 
" style="fill:none;stroke:#000000;stroke-linecap:square;stroke-linejoin:miter;stroke-width:0.8;"/>
   </g>
   <g id="text_38">
    <!-- 7.0 -->
    <g transform="translate(506.290258 119.08183)scale(0.14 -0.14)">
     <use transform="scale(0.996264)" xlink:href="#CMR17-55"/>
     <use transform="translate(45.690477 0)scale(0.996264)" xlink:href="#CMR17-46"/>
     <use transform="translate(70.561536 0)scale(0.996264)" xlink:href="#CMR17-48"/>
    </g>
   </g>
   <g id="text_39">
    <!-- 5.9 -->
    <g transform="translate(508.782454 159.682789)scale(0.14 -0.14)">
     <use transform="scale(0.996264)" xlink:href="#CMR17-53"/>
     <use transform="translate(45.690477 0)scale(0.996264)" xlink:href="#CMR17-46"/>
     <use transform="translate(70.561536 0)scale(0.996264)" xlink:href="#CMR17-57"/>
    </g>
   </g>
   <g id="legend_2">
    <g id="patch_13">
     <path d="M 644.136451 62.266995 
L 755.886332 62.266995 
Q 758.686332 62.266995 758.686332 59.466995 
L 758.686332 21.842938 
Q 758.686332 19.042938 755.886332 19.042938 
L 644.136451 19.042938 
Q 641.336451 19.042938 641.336451 21.842938 
L 641.336451 59.466995 
Q 641.336451 62.266995 644.136451 62.266995 
z
" style="fill:#ffffff;opacity:0.8;stroke:#000000;stroke-linejoin:miter;"/>
    </g>
    <g id="line2d_69">
     <path d="M 646.936451 29.542938 
L 674.936451 29.542938 
" style="fill:none;stroke:#1f77b4;stroke-linecap:square;stroke-width:1.5;"/>
    </g>
    <g id="line2d_70"/>
    <g id="text_40">
     <!-- Baseline -->
     <g transform="translate(686.136451 34.442938)scale(0.14 -0.14)">
      <use transform="scale(0.996264)" xlink:href="#CMR17-66"/>
      <use transform="translate(65.188754 0)scale(0.996264)" xlink:href="#CMR17-97"/>
      <use transform="translate(110.879232 0)scale(0.996264)" xlink:href="#CMR17-115"/>
      <use transform="translate(146.680569 0)scale(0.996264)" xlink:href="#CMR17-101"/>
      <use transform="translate(187.16623 0)scale(0.996264)" xlink:href="#CMR17-108"/>
      <use transform="translate(212.037288 0)scale(0.996264)" xlink:href="#CMR17-105"/>
      <use transform="translate(236.908347 0)scale(0.996264)" xlink:href="#CMR17-110"/>
      <use transform="translate(287.803716 0)scale(0.996264)" xlink:href="#CMR17-101"/>
     </g>
    </g>
    <g id="line2d_71">
     <path d="M 646.936451 49.054967 
L 674.936451 49.054967 
" style="fill:none;stroke:#ff7f0e;stroke-linecap:square;stroke-width:1.5;"/>
    </g>
    <g id="line2d_72"/>
    <g id="text_41">
     <!-- LayerNorm -->
     <g transform="translate(686.136451 53.954967)scale(0.14 -0.14)">
      <use transform="scale(0.996264)" xlink:href="#CMR17-76"/>
      <use transform="translate(57.381408 0)scale(0.996264)" xlink:href="#CMR17-97"/>
      <use transform="translate(100.469431 0)scale(0.996264)" xlink:href="#CMR17-121"/>
      <use transform="translate(146.159893 0)scale(0.996264)" xlink:href="#CMR17-101"/>
      <use transform="translate(186.645553 0)scale(0.996264)" xlink:href="#CMR17-114"/>
      <use transform="translate(221.926321 0)scale(0.996264)" xlink:href="#CMR17-78"/>
      <use transform="translate(290.998751 0)scale(0.996264)" xlink:href="#CMR17-111"/>
      <use transform="translate(336.689228 0)scale(0.996264)" xlink:href="#CMR17-114"/>
      <use transform="translate(371.969996 0)scale(0.996264)" xlink:href="#CMR17-109"/>
     </g>
    </g>
   </g>
  </g>
 </g>
 <defs>
  <clipPath id="p402d7a55b8">
   <rect height="221.459776" width="332.292808" x="42.331735" y="12.042938"/>
  </clipPath>
  <clipPath id="p04c9223cb9">
   <rect height="221.459776" width="332.292808" x="433.393523" y="12.042938"/>
  </clipPath>
 </defs>
</svg>
